HIERARCHY
ROOT Hips
{
  OFFSET 5.72205e-005 65.662 3.42586
  CHANNELS 6 Xposition Yposition Zposition Zrotation Xrotation Yrotation
  JOINT Chest
  {
    OFFSET 0 8.7983 -4.7612
    CHANNELS 3 Zrotation Xrotation Yrotation
    JOINT Chest2
    {
      OFFSET 0 8.0291 0.4195
      CHANNELS 3 Zrotation Xrotation Yrotation
      JOINT Chest3
      {
        OFFSET 0 9.9351 -2.2114
        CHANNELS 3 Zrotation Xrotation Yrotation
        JOINT Neck
        {
          OFFSET 0 22.3885 -0.4656
          CHANNELS 3 Zrotation Xrotation Yrotation
          JOINT Head
          {
            OFFSET -0.0001 12.643 3.4389
            CHANNELS 3 Zrotation Xrotation Yrotation
            End Site
            {
              OFFSET 0.0001 17.6655 0.5274
            }
          }
        }
        JOINT LeftCollar
        {
          OFFSET 2.2603 21.606 7.4023
          CHANNELS 3 Zrotation Xrotation Yrotation
          JOINT LeftShoulder
          {
            OFFSET 13.5163 -1.1332 -5.0146
            CHANNELS 3 Zrotation Xrotation Yrotation
            JOINT LeftElbow
            {
              OFFSET -0.0995 -28.05 -0.2431
              CHANNELS 3 Zrotation Xrotation Yrotation
              JOINT LeftWrist
              {
                OFFSET 0.0679 -23.3996 -0.1402
                CHANNELS 3 Zrotation Xrotation Yrotation
                JOINT LeftFinger1
                {
                  OFFSET 0.7932 -9.069 2.5189
                  CHANNELS 3 Zrotation Xrotation Yrotation
                  JOINT LeftFinger11
                  {
                    OFFSET -0.8272 -3.3923 0.5977
                    CHANNELS 3 Zrotation Xrotation Yrotation
                    JOINT LeftFinger12
                    {
                      OFFSET -0.5649 -2.3158 0.4082
                      CHANNELS 3 Zrotation Xrotation Yrotation
                      End Site
                      {
                        OFFSET -0.4919 -1.6479 0.2673
                      }
                    }
                  }
                }
                JOINT LeftFinger2
                {
                  OFFSET 0.9159 -9.2044 0.2193
                  CHANNELS 3 Zrotation Xrotation Yrotation
                  JOINT LeftFinger21
                  {
                    OFFSET 0.0117 -4.1944 -0.0248
                    CHANNELS 3 Zrotation Xrotation Yrotation
                    JOINT LeftFinger22
                    {
                      OFFSET 0.0071 -2.3249 -0.0142
                      CHANNELS 3 Zrotation Xrotation Yrotation
                      End Site
                      {
                        OFFSET -0.1475 -2.0882 0.0028
                      }
                    }
                  }
                }
                JOINT LeftFinger3
                {
                  OFFSET 0.6113 -8.7231 -2.0637
                  CHANNELS 3 Zrotation Xrotation Yrotation
                  JOINT LeftFinger31
                  {
                    OFFSET -0.1927 -3.8059 -0.2383
                    CHANNELS 3 Zrotation Xrotation Yrotation
                    JOINT LeftFinger32
                    {
                      OFFSET -0.1091 -2.1688 -0.1362
                      CHANNELS 3 Zrotation Xrotation Yrotation
                      End Site
                      {
                        OFFSET -0.2358 -1.9176 -0.0906
                      }
                    }
                  }
                }
                JOINT LeftFinger4
                {
                  OFFSET -0.6151 -8.0947 -3.5641
                  CHANNELS 3 Zrotation Xrotation Yrotation
                  JOINT LeftFinger41
                  {
                    OFFSET -0.4882 -2.341 -0.6462
                    CHANNELS 3 Zrotation Xrotation Yrotation
                    JOINT LeftFinger42
                    {
                      OFFSET -0.3575 -1.7167 -0.4742
                      CHANNELS 3 Zrotation Xrotation Yrotation
                      End Site
                      {
                        OFFSET -0.4187 -1.5237 -0.3496
                      }
                    }
                  }
                }
                JOINT LeftFinger0
                {
                  OFFSET -1.42 -1.8761 1.4223
                  CHANNELS 3 Zrotation Xrotation Yrotation
                  JOINT LeftFinger01
                  {
                    OFFSET -1.1471 -3.4929 2.6334
                    CHANNELS 3 Zrotation Xrotation Yrotation
                    JOINT LeftFinger02
                    {
                      OFFSET -0.823 -2.3 1.6571
                      CHANNELS 3 Zrotation Xrotation Yrotation
                      End Site
                      {
                        OFFSET -0.5822 -1.6914 1.1582
                      }
                    }
                  }
                }
              }
            }
          }
        }
        JOINT RightCollar
        {
          OFFSET -2.2603 21.606 7.4023
          CHANNELS 3 Zrotation Xrotation Yrotation
          JOINT RightShoulder
          {
            OFFSET -13.5187 -1.1334 -5.0155
            CHANNELS 3 Zrotation Xrotation Yrotation
            JOINT RightElbow
            {
              OFFSET 0.0994 -28.0499 -0.2431
              CHANNELS 3 Zrotation Xrotation Yrotation
              JOINT RightWrist
              {
                OFFSET -0.0679 -23.3996 -0.1402
                CHANNELS 3 Zrotation Xrotation Yrotation
                JOINT RightFinger1
                {
                  OFFSET -0.7932 -9.0691 2.5189
                  CHANNELS 3 Zrotation Xrotation Yrotation
                  JOINT RightFinger11
                  {
                    OFFSET 0.8272 -3.3923 0.5977
                    CHANNELS 3 Zrotation Xrotation Yrotation
                    JOINT RightFinger12
                    {
                      OFFSET 0.565 -2.3158 0.4082
                      CHANNELS 3 Zrotation Xrotation Yrotation
                      End Site
                      {
                        OFFSET 0.4919 -1.6479 0.2673
                      }
                    }
                  }
                }
                JOINT RightFinger2
                {
                  OFFSET -0.916 -9.2044 0.2193
                  CHANNELS 3 Zrotation Xrotation Yrotation
                  JOINT RightFinger21
                  {
                    OFFSET -0.0117 -4.1944 -0.0248
                    CHANNELS 3 Zrotation Xrotation Yrotation
                    JOINT RightFinger22
                    {
                      OFFSET -0.0071 -2.3249 -0.0142
                      CHANNELS 3 Zrotation Xrotation Yrotation
                      End Site
                      {
                        OFFSET 0.1475 -2.0882 0.0028
                      }
                    }
                  }
                }
                JOINT RightFinger3
                {
                  OFFSET -0.6113 -8.7231 -2.0637
                  CHANNELS 3 Zrotation Xrotation Yrotation
                  JOINT RightFinger31
                  {
                    OFFSET 0.1927 -3.8059 -0.2383
                    CHANNELS 3 Zrotation Xrotation Yrotation
                    JOINT RightFinger32
                    {
                      OFFSET 0.1091 -2.1688 -0.1362
                      CHANNELS 3 Zrotation Xrotation Yrotation
                      End Site
                      {
                        OFFSET 0.2358 -1.9176 -0.0906
                      }
                    }
                  }
                }
                JOINT RightFinger4
                {
                  OFFSET 0.6151 -8.0947 -3.564
                  CHANNELS 3 Zrotation Xrotation Yrotation
                  JOINT RightFinger41
                  {
                    OFFSET 0.4882 -2.341 -0.6462
                    CHANNELS 3 Zrotation Xrotation Yrotation
                    JOINT RightFinger42
                    {
                      OFFSET 0.3574 -1.7166 -0.4742
                      CHANNELS 3 Zrotation Xrotation Yrotation
                      End Site
                      {
                        OFFSET 0.4187 -1.5237 -0.3496
                      }
                    }
                  }
                }
                JOINT RightFinger0
                {
                  OFFSET 1.4199 -1.8761 1.4221
                  CHANNELS 3 Zrotation Xrotation Yrotation
                  JOINT RightFinger01
                  {
                    OFFSET 1.1472 -3.4929 2.6336
                    CHANNELS 3 Zrotation Xrotation Yrotation
                    JOINT RightFinger02
                    {
                      OFFSET 0.8229 -2.3 1.6571
                      CHANNELS 3 Zrotation Xrotation Yrotation
                      End Site
                      {
                        OFFSET 0.5822 -1.6914 1.1582
                      }
                    }
                  }
                }
              }
            }
          }
        }
      }
    }
  }
  JOINT RightHip
  {
    OFFSET -9.412 3.9771 -0.7758
    CHANNELS 3 Zrotation Xrotation Yrotation
    JOINT RightKnee
    {
      OFFSET -0.7531 -40.938 0
      CHANNELS 3 Zrotation Xrotation Yrotation
      JOINT RightAnkle
      {
        OFFSET 0 -40.1986 0
        CHANNELS 3 Zrotation Xrotation Yrotation
        JOINT RightToe
        {
          OFFSET 0 -4.4182 9.239
          CHANNELS 3 Zrotation Xrotation Yrotation
          End Site
          {
            OFFSET 0 0 6.1981
          }
        }
      }
    }
  }
  JOINT LeftHip
  {
    OFFSET 9.4119 3.9773 -0.7758
    CHANNELS 3 Zrotation Xrotation Yrotation
    JOINT LeftKnee
    {
      OFFSET 0.7532 -40.9383 0
      CHANNELS 3 Zrotation Xrotation Yrotation
      JOINT LeftAnkle
      {
        OFFSET 0 -40.1986 0
        CHANNELS 3 Zrotation Xrotation Yrotation
        JOINT LeftToe
        {
          OFFSET 0 -4.4182 9.239
          CHANNELS 3 Zrotation Xrotation Yrotation
          End Site
          {
            OFFSET 0 0 6.1981
          }
        }
      }
    }
  }
}
MOTION
Frames:	7
Frame Time:	0.0333333
5.72205e-005 65.662 3.42586 0 0 -0 0 0 -0 0 0 -0 0 0 -0 0 0 -0 0 0 -0 0 0 -12.5014 88.1196 14.2451 10.6914 -0.00160068 -0.00239207 0.000740045 -8.4365e-005 7.00714e-005 -9.52055e-007 9.93923e-017 -1.98785e-016 -1.59028e-015 9.93923e-017 -5.96354e-016 -1.59028e-015 -9.93923e-017 -5.96354e-016 -1.59028e-015 9.93923e-017 -1.98785e-016 -1.59028e-015 -0.0128176 0.00232552 8.52707e-005 9.93923e-017 5.96354e-016 -0 9.93923e-017 -1.98785e-016 -1.59028e-015 -0.0160551 0.00299681 0.000857156 -2.48481e-016 0 3.18055e-015 9.93923e-017 -1.98785e-016 -1.59028e-015 -0.0125865 0.0031206 0.00282719 0 1.98785e-016 -0 9.93923e-017 -1.98785e-016 -1.59028e-015 9.93923e-017 -5.96354e-016 -1.59028e-015 -9.93923e-017 -5.96354e-016 -1.59028e-015 -0.865644 0.16582 7.03859 -88.0329 10.2057 -10.5567 0.0015593 -0.00248883 -0.000788628 7.87605e-005 4.10553e-005 1.24965e-005 -3.97569e-016 -7.95139e-016 3.18055e-015 -1.98785e-016 -3.97569e-016 3.18055e-015 -1.98785e-016 0 3.18055e-015 -3.97569e-016 -7.95139e-016 3.18055e-015 0.0129473 0.00231697 -8.70038e-005 9.93923e-017 -7.95139e-016 1.59028e-015 -3.97569e-016 -7.95139e-016 3.18055e-015 0.0163314 0.00303369 -0.000872333 3.97569e-016 7.95139e-016 -3.18055e-015 -3.97569e-016 -7.95139e-016 3.18055e-015 0.0145763 0.00367772 -0.00326275 9.93923e-017 -3.97569e-016 -0 -3.97569e-016 -7.95139e-016 3.18055e-015 -1.98785e-016 -3.97569e-016 3.18055e-015 -1.98785e-016 0 3.18055e-015 3.42482 1.32465 -0.0626183 0.000117508 0.717283 0.000978199 -3.4257 -2.04197 -0.0604716 6.47761e-025 0 -0 -3.42483 1.34017 0.0627307 -0.000193936 0.682302 -0.0013703 3.42574 -2.02253 0.0595886 -8.45714e-024 0 -7.40531e-025 
-0.473414 1.16846 10.11 0.645985 -48.0242 -1.50211 -1.92002 11.0956 -0.570943 -3.83628 22.2041 -0.776717 -3.83628 22.2041 -0.776718 2.0091 5.99539 -0.212008 10.9491 -23.9407 13.4889 -13.2751 -6.25068 -0.011632 28.5283 6.1687 25.3957 6.44618 -18.816 24.1386 34.4614 4.89006 -56.7771 -5.14056e-007 1.15942e-008 1.57506e-006 -1.36905e-005 -4.63729e-006 -4.71704e-007 2.32368e-006 1.53801e-006 1.31658e-006 -5.14056e-007 1.15942e-008 1.57506e-006 -0.012803 0.00231717 8.55765e-005 8.01044e-006 1.71645e-006 9.89031e-007 -5.14056e-007 1.15942e-008 1.57506e-006 -0.0160739 0.00299486 0.000862959 -5.14254e-007 -1.70085e-006 1.57504e-006 -5.14056e-007 1.15942e-008 1.57506e-006 -0.0126024 0.00312005 0.00283197 8.35339e-006 2.15844e-006 2.67805e-006 -5.14056e-007 1.15942e-008 1.57506e-006 -1.36905e-005 -4.63729e-006 -4.71704e-007 2.32368e-006 1.53801e-006 1.31658e-006 6.43864 -3.74489 28.4109 -95.79 -29.7891 -33.0548 11.3587 -15.8767 -58.3026 9.62408 -5.9112 -21.0019 -3.02263e-006 -1.57546e-006 3.7148e-006 1.82685e-006 -2.91468e-007 1.34827e-006 1.35355e-006 1.57564e-006 -3.46024e-006 -3.02263e-006 -1.57546e-006 3.7148e-006 0.0129285 0.00232005 -8.77774e-005 -3.56799e-006 -2.15718e-005 -3.165e-006 -3.02263e-006 -1.57546e-006 3.7148e-006 0.0162959 0.00302663 -0.000872068 -2.2317e-006 9.2921e-006 3.8217e-006 -3.02263e-006 -1.57546e-006 3.7148e-006 0.0145911 0.00368822 -0.00326713 -2.67747e-006 -1.20917e-005 4.12818e-006 -3.02263e-006 -1.57546e-006 3.7148e-006 1.82685e-006 -2.91468e-007 1.34827e-006 1.35355e-006 1.57564e-006 -3.46024e-006 -89.1443 -74.4362 -101.311 -156.917 71.6731 156.013 20.3253 25.8459 -12.9236 -1.27932e-005 1.19705e-006 2.22512e-006 45.7207 -23.5563 114.644 -157.38 77.4414 155.323 -53.9866 17.1809 53.1761 -1.70955e-014 2.32601e-006 -3.18055e-015 
-0.473414 1.16846 10.11 0.645986 -48.0242 -1.50211 -1.92002 11.0956 -0.570942 -3.83628 22.2041 -0.776716 -3.83628 22.2041 -0.776717 1.92393 6.01193 -0.270179 10.9491 -23.9407 13.4889 -13.2751 -6.25068 -0.0116339 28.5281 6.16879 25.3957 6.4463 -18.8161 24.1386 34.4614 4.89005 -56.7771 -1.98785e-014 3.18055e-015 -3.18055e-015 5.14056e-007 -5.79718e-009 -1.57506e-006 -8.74653e-015 -3.18055e-015 3.18055e-015 -1.98785e-014 3.18055e-015 -3.18055e-015 -0.0128144 0.0023241 8.41359e-005 -7.15625e-015 -3.18055e-015 -4.77083e-015 -1.98785e-014 3.18055e-015 -3.18055e-015 -0.0160431 0.00299774 0.000863308 -1.25282e-005 -6.3864e-006 9.09301e-008 -1.98785e-014 3.18055e-015 -3.18055e-015 -0.0125724 0.00312415 0.00282751 9.54166e-015 0 3.18055e-015 -1.98785e-014 3.18055e-015 -3.18055e-015 5.14056e-007 -5.79718e-009 -1.57506e-006 -8.74653e-015 -3.18055e-015 3.18055e-015 6.43865 -3.74489 28.411 -95.79 -29.7892 -33.0548 11.3021 -16.1206 -57.7955 9.62409 -5.91119 -21.0019 3.18055e-015 0 -4.77083e-015 3.18055e-015 0 -1.78906e-015 3.18055e-015 -1.59028e-015 -2.18663e-015 3.18055e-015 0 -4.77083e-015 0.0129422 0.00231897 -9.01246e-005 -1.59028e-015 1.59028e-015 -1.98785e-015 3.18055e-015 0 -4.77083e-015 0.0163223 0.00302303 -0.000878786 -8.82781e-031 1.27222e-014 3.97569e-015 3.18055e-015 0 -4.77083e-015 0.0145795 0.00367575 -0.00325999 -3.18055e-015 1.59028e-015 -5.56597e-015 3.18055e-015 0 -4.77083e-015 3.18055e-015 0 -1.78906e-015 3.18055e-015 -1.59028e-015 -2.18663e-015 -89.1443 -74.4362 -101.311 -156.917 71.6731 156.013 20.3253 25.8459 -12.9236 7.95139e-016 -8.43646e-007 -1.59028e-015 45.7207 -23.5562 114.644 -157.38 77.4415 155.323 -53.9866 17.1809 53.1761 1.13583e-006 1.31829e-006 -3.49928e-006 
-0.473414 1.16846 10.11 0.645985 -48.0242 -1.50211 -1.92002 11.0956 -0.570943 -3.83628 22.2041 -0.776717 -3.83628 22.2041 -0.776718 1.83875 6.02855 -0.328344 10.9491 -23.9407 13.4889 -13.2751 -6.25068 -0.011632 28.5283 6.16869 25.3957 6.44619 -18.816 24.1386 34.4614 4.89008 -56.7771 1.11319e-014 6.36111e-015 3.18055e-015 4.77083e-015 3.18055e-015 4.77083e-015 8.74653e-015 3.18055e-015 -0 1.11319e-014 6.36111e-015 3.18055e-015 -0.0127858 0.00232658 8.68829e-005 3.18055e-015 -6.36111e-015 -1.59028e-015 1.11319e-014 6.36111e-015 3.18055e-015 -0.0160622 0.00300332 0.000854164 -2.58133e-006 1.76513e-008 -5.29144e-007 1.11319e-014 6.36111e-015 3.18055e-015 -0.0125954 0.00313379 0.00282894 -1.59028e-015 0 -0 1.11319e-014 6.36111e-015 3.18055e-015 4.77083e-015 3.18055e-015 4.77083e-015 8.74653e-015 3.18055e-015 -0 6.43864 -3.74489 28.4109 -95.79 -29.7891 -33.0548 11.2476 -16.3654 -57.287 9.62412 -5.91116 -21.0018 2.3446e-006 4.26974e-007 -1.98759e-006 -3.7473e-006 -1.66498e-007 -1.63224e-006 6.44348e-006 1.73674e-005 4.51767e-006 2.3446e-006 4.26974e-007 -1.98759e-006 0.0129978 0.00233271 -8.2623e-005 3.48061e-006 9.36713e-006 -5.33568e-007 2.3446e-006 4.26974e-007 -1.98759e-006 0.0163822 0.00305091 -0.000876033 3.66756e-006 -4.75563e-007 2.72655e-006 2.3446e-006 4.26974e-007 -1.98759e-006 0.0145904 0.00368271 -0.00326029 4.87113e-007 5.06029e-006 4.8388e-006 2.3446e-006 4.26974e-007 -1.98759e-006 -3.7473e-006 -1.66498e-007 -1.63224e-006 6.44348e-006 1.73674e-005 4.51767e-006 -89.1444 -74.4362 -101.311 -156.917 71.6731 156.013 20.3253 25.8458 -12.9236 -1.11414e-007 -2.34857e-008 -8.35378e-007 45.7207 -23.5563 114.644 -157.38 77.4414 155.323 -53.9866 17.1809 53.1761 4.76706e-006 -4.13508e-006 1.05068e-007 
-0.473414 1.16846 10.11 0.645986 -48.0242 -1.50211 -1.92002 11.0956 -0.570942 -3.83628 22.2041 -0.776716 -3.83628 22.2041 -0.776717 1.75356 6.04525 -0.386504 10.9491 -23.9407 13.4889 -13.2751 -6.25068 -0.0116339 28.5281 6.1688 25.3957 6.44632 -18.8161 24.1386 34.4614 4.89007 -56.7771 4.1333e-006 -1.86322e-007 4.20822e-006 2.87966e-006 -4.18002e-006 9.79474e-007 -5.97916e-007 1.28719e-006 -9.00856e-007 4.1333e-006 -1.86322e-007 4.20822e-006 -0.0128221 0.00232625 8.50217e-005 -6.67227e-006 1.36696e-006 -3.49958e-006 4.1333e-006 -1.86322e-007 4.20822e-006 -0.015998 0.00298481 0.000849076 -1.80995e-006 3.82889e-007 -2.89171e-006 4.1333e-006 -1.86322e-007 4.20822e-006 -0.0125956 0.00312379 0.00283097 -3.18055e-015 -3.18055e-015 -0 4.1333e-006 -1.86322e-007 4.20822e-006 2.87966e-006 -4.18002e-006 9.79474e-007 -5.97916e-007 1.28719e-006 -9.00856e-007 6.43865 -3.74489 28.411 -95.79 -29.7892 -33.0548 11.1951 -16.6113 -56.777 9.62411 -5.9111 -21.0018 -0 0 5.96354e-016 3.31043e-032 -3.18055e-015 5.96354e-016 -1.59028e-015 -3.18055e-015 9.93923e-016 -0 0 5.96354e-016 0.0129475 0.00230853 -8.31972e-005 -4.41391e-032 -3.18055e-015 -7.95139e-016 -0 0 5.96354e-016 0.0163018 0.00302043 -0.000876166 0 0 -4.37326e-015 -0 0 5.96354e-016 0.0145729 0.00368085 -0.00325645 -1.59028e-015 -1.59028e-015 2.78299e-015 -0 0 5.96354e-016 3.31043e-032 -3.18055e-015 5.96354e-016 -1.59028e-015 -3.18055e-015 9.93923e-016 -89.1444 -74.4362 -101.311 -156.917 71.673 156.013 20.3253 25.8459 -12.9236 -2.80644e-006 1.22915e-007 5.62178e-008 45.7207 -23.5564 114.644 -157.38 77.4415 155.323 -53.9866 17.1809 53.1761 -9.99728e-006 6.16709e-006 -5.95754e-006 
-0.473414 1.16847 10.11 0.645984 -48.0243 -1.50211 -1.92002 11.0956 -0.570945 -3.83628 22.2041 -0.776718 -3.83628 22.2041 -0.776718 1.66835 6.06206 -0.444657 10.9491 -23.9407 13.4889 -13.2751 -6.25067 -0.01163 28.5283 6.1687 25.3957 6.4462 -18.816 24.1386 34.4614 4.89006 -56.7771 -1.77399e-005 -4.15069e-006 -2.20402e-006 -1.59028e-015 9.54166e-015 -3.18055e-015 2.57027e-007 -3.04849e-006 -7.87533e-007 -1.77399e-005 -4.15069e-006 -2.20402e-006 -0.0127996 0.00232307 8.39469e-005 6.02929e-006 -1.11191e-006 1.36077e-006 -1.77399e-005 -4.15069e-006 -2.20402e-006 -0.0160411 0.00300182 0.000855787 -1.59028e-015 -1.727e-006 1.59028e-015 -1.77399e-005 -4.15069e-006 -2.20402e-006 -0.0125868 0.00312433 0.00282961 2.57116e-007 -5.81727e-009 -7.87529e-007 -1.77399e-005 -4.15069e-006 -2.20402e-006 -1.59028e-015 9.54166e-015 -3.18055e-015 2.57027e-007 -3.04849e-006 -7.87533e-007 6.43864 -3.74488 28.4109 -95.79 -29.7891 -33.0548 11.1448 -16.8581 -56.2654 9.62412 -5.91111 -21.0017 3.18055e-015 0 3.97569e-015 3.18055e-015 1.59028e-015 5.96354e-016 3.18055e-015 0 3.37934e-015 3.18055e-015 0 3.97569e-015 0.0129078 0.00230583 -8.22321e-005 1.59028e-015 0 -2.18663e-015 3.18055e-015 0 3.97569e-015 0.0163575 0.00303882 -0.000874943 4.77083e-015 1.59028e-015 1.39149e-015 3.18055e-015 0 3.97569e-015 0.0146851 0.0036968 -0.00328329 -4.77083e-015 1.59028e-015 1.78906e-015 3.18055e-015 0 3.97569e-015 3.18055e-015 1.59028e-015 5.96354e-016 3.18055e-015 0 3.37934e-015 -89.1445 -74.4362 -101.311 -156.917 71.673 156.013 20.3253 25.8459 -12.9236 -1.54882e-005 -3.88976e-007 3.11672e-006 45.7207 -23.5562 114.644 -157.38 77.4415 155.323 -53.9866 17.1809 53.1761 -3.63124e-006 -1.7292e-006 -3.60434e-006 
-0.473414 1.16846 10.11 0.645985 -48.0242 -1.50211 -1.92002 11.0956 -0.570943 -3.83628 22.2041 -0.776717 -3.83628 22.2041 -0.776718 1.58314 6.07895 -0.502809 10.9491 -23.9407 13.4889 -13.2751 -6.25068 -0.011631 28.5283 6.16869 25.3957 6.44623 -18.816 24.1386 34.4614 4.89009 -56.7771 -2.57028e-007 5.79727e-009 7.87532e-007 -2.53878e-006 1.18311e-006 7.08913e-007 5.14056e-007 1.72131e-006 -1.57506e-006 -2.57028e-007 5.79727e-009 7.87532e-007 -0.0128266 0.00232713 8.48659e-005 -3.18055e-015 -6.36111e-015 4.77083e-015 -2.57028e-007 5.79727e-009 7.87532e-007 -0.0160782 0.00300105 0.000853609 -3.18055e-015 -6.36111e-015 -1.59028e-015 -2.57028e-007 5.79727e-009 7.87532e-007 -0.0125943 0.00312364 0.00283543 -2.02407e-006 1.1747e-006 -8.66398e-007 -2.57028e-007 5.79727e-009 7.87532e-007 -2.53878e-006 1.18311e-006 7.08913e-007 5.14056e-007 1.72131e-006 -1.57506e-006 6.43864 -3.74489 28.4109 -95.79 -29.7892 -33.0548 11.0966 -17.1058 -55.7525 9.62411 -5.91105 -21.0017 1.59028e-015 0 1.98785e-016 -0 0 3.37934e-015 -8.82781e-032 1.59028e-015 3.18055e-015 1.59028e-015 0 1.98785e-016 0.012944 0.0023105 -8.69078e-005 1.59028e-015 0 -1.39149e-015 1.59028e-015 0 1.98785e-016 0.0163897 0.00304493 -0.000874513 1.21382e-031 -3.18055e-015 2.18663e-015 1.59028e-015 0 1.98785e-016 0.014538 0.00365426 -0.00324665 3.18055e-015 1.59028e-015 6.95746e-015 1.59028e-015 0 1.98785e-016 -0 0 3.37934e-015 -8.82781e-032 1.59028e-015 3.18055e-015 -89.1443 -74.4362 -101.311 -156.917 71.6731 156.013 20.3253 25.8459 -12.9236 1.11413e-007 8.6575e-007 8.35378e-007 45.7207 -23.5563 114.644 -157.38 77.4414 155.323 -53.9866 17.1809 53.1761 -1.70955e-014 2.32601e-006 -3.18055e-015 
